<?xml version="1.0" encoding="UTF-8" standalone="no"?>
<!DOCTYPE svg PUBLIC "-//W3C//DTD SVG 1.1//EN"
 "http://www.w3.org/Graphics/SVG/1.1/DTD/svg11.dtd">
<!-- Generated by graphviz version 2.50.0 (0)
 -->
<!-- Title: dgp Pages: 1 -->
<svg width="339pt" height="260pt"
 viewBox="0.00 0.00 339.49 260.00" xmlns="http://www.w3.org/2000/svg" xmlns:xlink="http://www.w3.org/1999/xlink">
<g id="graph0" class="graph" transform="scale(1 1) rotate(0) translate(4 256)">
<title>dgp</title>
<polygon fill="white" stroke="transparent" points="-4,4 -4,-256 335.49,-256 335.49,4 -4,4"/>
<!-- age -->
<g id="node1" class="node">
<title>age</title>
<ellipse fill="none" stroke="black" cx="27" cy="-162" rx="27" ry="18"/>
<text text-anchor="middle" x="27" y="-158.3" font-family="Times,serif" font-size="14.00">Age</text>
</g>
<!-- stirring -->
<g id="node5" class="node">
<title>stirring</title>
<ellipse fill="none" stroke="black" cx="197" cy="-90" rx="37.89" ry="18"/>
<text text-anchor="middle" x="197" y="-86.3" font-family="Times,serif" font-size="14.00">Stirring</text>
</g>
<!-- age&#45;&gt;stirring -->
<g id="edge3" class="edge">
<title>age&#45;&gt;stirring</title>
<path fill="none" stroke="black" d="M48.22,-150.7C53.05,-148.44 58.18,-146.09 63,-144 95,-130.14 131.87,-115.66 158.83,-105.34"/>
<polygon fill="black" stroke="black" points="160.19,-108.57 168.29,-101.74 157.7,-102.03 160.19,-108.57"/>
</g>
<!-- payment -->
<g id="node6" class="node">
<title>payment</title>
<ellipse fill="none" stroke="black" cx="197" cy="-18" rx="42.49" ry="18"/>
<text text-anchor="middle" x="197" y="-14.3" font-family="Times,serif" font-size="14.00">Payment</text>
</g>
<!-- age&#45;&gt;payment -->
<g id="edge2" class="edge">
<title>age&#45;&gt;payment</title>
<path fill="none" stroke="black" d="M42.52,-147.22C62.53,-129.54 98.49,-98.05 130,-72 142.82,-61.4 157.26,-49.92 169.44,-40.36"/>
<polygon fill="black" stroke="black" points="171.75,-43 177.47,-34.09 167.44,-37.49 171.75,-43"/>
</g>
<!-- nationality -->
<g id="node2" class="node">
<title>nationality</title>
<ellipse fill="none" stroke="black" cx="122" cy="-162" rx="50.09" ry="18"/>
<text text-anchor="middle" x="122" y="-158.3" font-family="Times,serif" font-size="14.00">Nationality</text>
</g>
<!-- nationality&#45;&gt;stirring -->
<g id="edge5" class="edge">
<title>nationality&#45;&gt;stirring</title>
<path fill="none" stroke="black" d="M139.4,-144.76C149.35,-135.47 162,-123.67 172.9,-113.49"/>
<polygon fill="black" stroke="black" points="175.55,-115.81 180.47,-106.43 170.77,-110.69 175.55,-115.81"/>
</g>
<!-- nationality&#45;&gt;payment -->
<g id="edge4" class="edge">
<title>nationality&#45;&gt;payment</title>
<path fill="none" stroke="black" d="M125.18,-143.74C129.1,-125.14 136.91,-95.12 150,-72 156.09,-61.24 164.65,-50.76 172.79,-41.99"/>
<polygon fill="black" stroke="black" points="175.34,-44.39 179.77,-34.77 170.31,-39.53 175.34,-44.39"/>
</g>
<!-- chef_rating -->
<g id="node3" class="node">
<title>chef_rating</title>
<ellipse fill="none" stroke="black" cx="273" cy="-234" rx="50.89" ry="18"/>
<text text-anchor="middle" x="273" y="-230.3" font-family="Times,serif" font-size="14.00">Chef rating</text>
</g>
<!-- gas_stove -->
<g id="node4" class="node">
<title>gas_stove</title>
<ellipse fill="none" stroke="black" cx="273" cy="-162" rx="45.49" ry="18"/>
<text text-anchor="middle" x="273" y="-158.3" font-family="Times,serif" font-size="14.00">Gas stove</text>
</g>
<!-- chef_rating&#45;&gt;gas_stove -->
<g id="edge1" class="edge">
<title>chef_rating&#45;&gt;gas_stove</title>
<path fill="none" stroke="black" d="M273,-215.7C273,-207.98 273,-198.71 273,-190.11"/>
<polygon fill="black" stroke="black" points="276.5,-190.1 273,-180.1 269.5,-190.1 276.5,-190.1"/>
</g>
<!-- chef_rating&#45;&gt;stirring -->
<g id="edge7" class="edge">
<title>chef_rating&#45;&gt;stirring</title>
<path fill="none" stroke="black" d="M252.25,-217.45C240.83,-207.85 227.33,-194.6 219,-180 208.12,-160.93 202.58,-136.58 199.78,-118.16"/>
<polygon fill="black" stroke="black" points="203.23,-117.54 198.43,-108.1 196.29,-118.47 203.23,-117.54"/>
</g>
<!-- chef_rating&#45;&gt;payment -->
<g id="edge6" class="edge">
<title>chef_rating&#45;&gt;payment</title>
<path fill="none" stroke="black" d="M295.68,-217.69C307.41,-208.34 320.59,-195.26 327,-180 333.19,-165.25 332.57,-159 327,-144 309.47,-96.78 262.63,-59.54 230.25,-38.39"/>
<polygon fill="black" stroke="black" points="231.85,-35.26 221.53,-32.86 228.1,-41.17 231.85,-35.26"/>
</g>
<!-- gas_stove&#45;&gt;stirring -->
<g id="edge9" class="edge">
<title>gas_stove&#45;&gt;stirring</title>
<path fill="none" stroke="black" d="M255.75,-145.12C245.51,-135.68 232.35,-123.56 221.09,-113.19"/>
<polygon fill="black" stroke="black" points="223.38,-110.54 213.66,-106.34 218.64,-115.69 223.38,-110.54"/>
</g>
<!-- gas_stove&#45;&gt;payment -->
<g id="edge8" class="edge">
<title>gas_stove&#45;&gt;payment</title>
<path fill="none" stroke="black" d="M269.59,-143.74C265.42,-125.15 257.25,-95.13 244,-72 237.85,-61.27 229.28,-50.79 221.14,-42.03"/>
<polygon fill="black" stroke="black" points="223.63,-39.57 214.17,-34.8 218.6,-44.42 223.63,-39.57"/>
</g>
<!-- stirring&#45;&gt;payment -->
<g id="edge10" class="edge">
<title>stirring&#45;&gt;payment</title>
<path fill="none" stroke="black" d="M197,-71.7C197,-63.98 197,-54.71 197,-46.11"/>
<polygon fill="black" stroke="black" points="200.5,-46.1 197,-36.1 193.5,-46.1 200.5,-46.1"/>
</g>
</g>
</svg>
