<?xml version="1.0" encoding="UTF-8" standalone="no"?>
<!DOCTYPE svg PUBLIC "-//W3C//DTD SVG 1.1//EN"
 "http://www.w3.org/Graphics/SVG/1.1/DTD/svg11.dtd">
<!-- Generated by graphviz version 2.50.0 (0)
 -->
<!-- Title: prediction_failure Pages: 1 -->
<svg width="186pt" height="116pt"
 viewBox="0.00 0.00 185.94 116.00" xmlns="http://www.w3.org/2000/svg" xmlns:xlink="http://www.w3.org/1999/xlink">
<g id="graph0" class="graph" transform="scale(1 1) rotate(0) translate(4 112)">
<title>prediction_failure</title>
<polygon fill="white" stroke="transparent" points="-4,4 -4,-112 181.94,-112 181.94,4 -4,4"/>
<!-- stirring -->
<g id="node1" class="node">
<title>stirring</title>
<ellipse fill="none" stroke="black" cx="37.7" cy="-18" rx="37.89" ry="18"/>
<text text-anchor="middle" x="37.7" y="-14.3" font-family="Times,serif" font-size="14.00">Stirring</text>
</g>
<!-- payment -->
<g id="node2" class="node">
<title>payment</title>
<ellipse fill="none" stroke="black" cx="135.7" cy="-18" rx="42.49" ry="18"/>
<text text-anchor="middle" x="135.7" y="-14.3" font-family="Times,serif" font-size="14.00">Payment</text>
</g>
<!-- chef_rating -->
<g id="node3" class="node">
<title>chef_rating</title>
<ellipse fill="none" stroke="black" cx="86.7" cy="-90" rx="50.89" ry="18"/>
<text text-anchor="middle" x="86.7" y="-86.3" font-family="Times,serif" font-size="14.00">Chef rating</text>
</g>
<!-- chef_rating&#45;&gt;stirring -->
<g id="edge2" class="edge">
<title>chef_rating&#45;&gt;stirring</title>
<path fill="none" stroke="black" d="M75.08,-72.41C69.1,-63.87 61.69,-53.28 55.05,-43.79"/>
<polygon fill="black" stroke="black" points="57.83,-41.66 49.23,-35.47 52.09,-45.67 57.83,-41.66"/>
</g>
<!-- chef_rating&#45;&gt;payment -->
<g id="edge1" class="edge">
<title>chef_rating&#45;&gt;payment</title>
<path fill="none" stroke="black" d="M98.31,-72.41C104.29,-63.87 111.7,-53.28 118.35,-43.79"/>
<polygon fill="black" stroke="black" points="121.3,-45.67 124.17,-35.47 115.57,-41.66 121.3,-45.67"/>
</g>
</g>
</svg>
